<?xml version="1.0" encoding="UTF-8"?>
<svg xmlns="http://www.w3.org/2000/svg" xmlns:xlink="http://www.w3.org/1999/xlink" version="1.1" viewBox="0 0 406 198">
  <defs>
    <style>
      .cls-1 {
        mask: url(#mask);
      }

      .cls-2 {
        stroke: #f8fafc;
      }

      .cls-2, .cls-3 {
        stroke-miterlimit: 10;
      }

      .cls-2, .cls-3, .cls-4 {
        fill: none;
      }

      .cls-5 {
        fill: #1e293b;
        stroke: #334155;
      }

      .cls-3, .cls-4 {
        stroke: #e2e8f0;
      }

      .cls-6 {
        opacity: .5;
      }

      .cls-7 {
        opacity: .2;
      }

      .cls-8 {
        fill: url(#Dégradé_sans_nom_2);
        stroke: #1e293b;
      }
    </style>
    <linearGradient id="Dégradé_sans_nom_2" data-name="Dégradé sans nom 2" x1="127.8" y1="-56.8" x2="279.5" y2="259.7" gradientTransform="translate(0 199.1) scale(1 -1)" gradientUnits="userSpaceOnUse">
      <stop offset="0" stop-color="#1e293b" stop-opacity=".6"/>
      <stop offset="1" stop-color="#1e293b" stop-opacity=".2"/>
    </linearGradient>
    <mask id="mask" x="-278.5" y="-277.5" width="802.6" height="731" maskUnits="userSpaceOnUse">
      <g id="mask0_496_303">
        <rect class="cls-8" x=".5" y=".5" width="405" height="197" rx="15.5" ry="15.5"/>
      </g>
    </mask>
  </defs>
  <!-- Generator: Adobe Illustrator 28.6.0, SVG Export Plug-In . SVG Version: 1.2.0 Build 709)  -->
  <g>
    <g id="Calque_1">
      <rect class="cls-5" x=".5" y=".5" width="405" height="197" rx="15.5" ry="15.5"/>
      <g class="cls-1">
        <g>
          <g>
            <ellipse class="cls-3" cx="-49.6" cy="255" rx="228.4" ry="198"/>
            <path class="cls-4" d="M178.3,255c0,109-102,197.5-227.9,197.5s-227.9-88.5-227.9-197.5S-175.5,57.5-49.6,57.5s227.9,88.5,227.9,197.5Z"/>
          </g>
          <g class="cls-7">
            <ellipse class="cls-3" cx="196.1" cy="-111" rx="191.5" ry="166"/>
            <path class="cls-4" d="M387-111c0,91.3-85.4,165.5-191,165.5S5.1-19.7,5.1-111s85.4-165.5,191-165.5,191,74.2,191,165.5Z"/>
          </g>
          <g class="cls-6">
            <ellipse class="cls-3" cx="369.1" cy="180" rx="154.6" ry="134"/>
            <path class="cls-4" d="M523.1,180c0,73.7-68.9,133.5-154.1,133.5s-154.1-59.8-154.1-133.5S283.9,46.5,369.1,46.5s154.1,59.8,154.1,133.5Z"/>
          </g>
          <g class="cls-7">
            <ellipse class="cls-3" cx="123.4" cy="279" rx="117.6" ry="102"/>
            <path class="cls-4" d="M240.6,279c0,56-52.4,101.5-117.1,101.5S6.3,335,6.3,279s52.4-101.5,117.1-101.5,117.1,45.5,117.1,101.5Z"/>
          </g>
          <ellipse class="cls-2" cx="51.9" cy="-1" rx="117.6" ry="102"/>
          <path class="cls-4" d="M169.1-1c0,56-52.4,101.5-117.1,101.5S-65.2,55-65.2-1-12.9-102.5,51.9-102.5,169.1-57,169.1-1Z"/>
        </g>
      </g>
    </g>
  </g>
</svg>