<?xml version="1.0" encoding="UTF-8"?>
<svg xmlns="http://www.w3.org/2000/svg" xmlns:xlink="http://www.w3.org/1999/xlink" version="1.1" viewBox="0 0 404 198">
  <defs>
    <style>
      .cls-1 {
        mask: url(#mask);
      }

      .cls-2 {
        stroke: #f8fafc;
      }

      .cls-2, .cls-3 {
        fill: none;
      }

      .cls-4 {
        fill: #1e293b;
        stroke: #334155;
      }

      .cls-5 {
        opacity: .8;
      }

      .cls-6 {
        opacity: .8;
      }

      .cls-7 {
        opacity: .7;
      }

      .cls-3 {
        stroke: #e2e8f0;
      }

      .cls-8 {
        fill: url(#Dégradé_sans_nom_2);
        stroke: #1e293b;
      }
    </style>
    <linearGradient id="Dégradé_sans_nom_2" data-name="Dégradé sans nom 2" x1="126.5" y1="-56.5" x2="278.7" y2="259.4" gradientTransform="translate(0 199.1) scale(1 -1)" gradientUnits="userSpaceOnUse">
      <stop offset="0" stop-color="#1e293b" stop-opacity=".6"/>
      <stop offset="1" stop-color="#1e293b" stop-opacity=".2"/>
    </linearGradient>
    <mask id="mask" x="-276.5" y="-277" width="797.4" height="730" maskUnits="userSpaceOnUse">
      <g id="mask0_496_257">
        <rect class="cls-8" x=".5" y=".5" width="402.9" height="197" rx="15.5" ry="15.5"/>
      </g>
    </mask>
  </defs>
  <!-- Generator: Adobe Illustrator 28.6.0, SVG Export Plug-In . SVG Version: 1.2.0 Build 709)  -->
  <g>
    <g id="Calque_1">
      <rect class="cls-4" x=".5" y=".5" width="402.9" height="197" rx="15.5" ry="15.5"/>
      <g class="cls-1">
        <g>
          <path class="cls-2" d="M177.3,255c0,109-101.4,197.5-226.7,197.5s-226.7-88.5-226.7-197.5S-174.6,57.5-49.3,57.5s226.7,88.5,226.7,197.5Z"/>
          <g class="cls-5">
            <path class="cls-3" d="M385-111c0,91.3-85,165.5-190,165.5S5.1-19.7,5.1-111s85-165.5,190-165.5,190,74.2,190,165.5Z"/>
          </g>
          <g class="cls-6">
            <path class="cls-3" d="M520.4,180c0,73.7-68.5,133.5-153.2,133.5s-153.2-59.8-153.2-133.5S282.4,46.5,367.1,46.5s153.2,59.8,153.2,133.5Z"/>
          </g>
          <g class="cls-7">
            <path class="cls-3" d="M239.3,279c0,56-52.1,101.5-116.5,101.5S6.2,335,6.2,279s52.1-101.5,116.5-101.5,116.5,45.5,116.5,101.5Z"/>
          </g>
          <g class="cls-7">
            <path class="cls-3" d="M168.2-1c0,56-52.1,101.5-116.5,101.5S-64.9,55-64.9-1-12.8-102.5,51.6-102.5,168.2-57,168.2-1Z"/>
          </g>
        </g>
      </g>
    </g>
  </g>
</svg>