<?xml version="1.0" encoding="UTF-8" standalone="no"?><!DOCTYPE svg PUBLIC "-//W3C//DTD SVG 1.1//EN" "http://www.w3.org/Graphics/SVG/1.1/DTD/svg11.dtd"><svg width="100%" height="100%" viewBox="0 0 276 276" version="1.1" xmlns="http://www.w3.org/2000/svg" xmlns:xlink="http://www.w3.org/1999/xlink" xml:space="preserve" xmlns:serif="http://www.serif.com/" style="fill-rule:evenodd;clip-rule:evenodd;stroke-linejoin:round;stroke-miterlimit:2;"><g><g><path d="M56.754,93.165c4.218,6.256 7.205,13.175 9.761,18.543c1.315,2.77 2.519,5.159 3.723,6.778c1.825,2.911 4.278,5.792 7.3,8.501c3.006,2.697 6.58,5.227 10.634,7.448c3.482,1.901 7.06,3.422 10.637,4.603c9.438,3.109 18.807,3.638 26.061,1.661c-5.078,0.709 -11.064,0.088 -17.111,-1.901c-2.751,-0.907 -5.517,-2.081 -8.191,-3.547c-3.144,-1.719 -5.887,-3.67 -8.211,-5.75c-2.328,-2.088 -4.225,-4.317 -5.631,-6.557c-0.922,-1.246 -1.856,-3.09 -2.877,-5.224c-1.97,-4.145 -4.271,-9.479 -7.525,-14.31c-1.371,-2.027 -2.911,-3.982 -4.663,-5.685c-4.313,-4.176 -9.186,-7.224 -13.96,-9.011c6.808,-3.806 18.17,-3.307 28.868,1.482c1.197,0.53 2.378,1.109 3.548,1.745c1.135,0.622 2.187,1.281 3.212,1.963c-2.088,-3.239 -4.961,-6.432 -8.52,-9.385c-2.69,-2.24 -5.749,-4.347 -9.171,-6.225c-1.524,-0.831 -3.052,-1.566 -4.598,-2.26c-13.869,-6.206 -28.603,-6.858 -37.423,-1.92c6.184,2.313 12.505,6.26 18.086,11.674c2.283,2.218 4.264,4.74 6.051,7.377" style="fill:#becbde;fill-rule:nonzero;"/><path d="M140.7,151.145c0.713,5.06 0.088,11.057 -1.905,17.092c-0.895,2.763 -2.072,5.514 -3.543,8.207c-1.711,3.125 -3.669,5.879 -5.742,8.2c-2.099,2.335 -4.32,4.221 -6.565,5.635c-1.249,0.922 -3.097,1.855 -5.223,2.869c-4.142,1.981 -9.48,4.275 -14.311,7.536c-2.023,1.36 -3.985,2.903 -5.684,4.667c-4.172,4.298 -7.232,9.179 -9.015,13.945c-3.806,-6.805 -3.3,-18.178 1.493,-28.861c0.519,-1.193 1.102,-2.378 1.734,-3.547c0.621,-1.132 1.292,-2.191 1.966,-3.208c-3.242,2.076 -6.435,4.953 -9.388,8.508c-2.236,2.697 -4.343,5.753 -6.222,9.186c-0.83,1.516 -1.57,3.04 -2.255,4.591c-6.215,13.853 -6.862,28.598 -1.924,37.418c2.301,-6.183 6.263,-12.493 11.674,-18.082c2.221,-2.29 4.736,-4.271 7.387,-6.054c6.245,-4.222 13.16,-7.209 18.533,-9.758c2.773,-1.311 5.155,-2.534 6.77,-3.73c2.919,-1.825 5.791,-4.279 8.504,-7.296c2.705,-3.014 5.228,-6.58 7.453,-10.634c1.908,-3.479 3.429,-7.053 4.606,-10.626c3.105,-9.453 3.631,-18.811 1.657,-26.058" style="fill:#becbde;fill-rule:nonzero;"/><path d="M105.284,100.251c1.112,3.799 2.564,7.407 4.271,10.767c4.484,8.882 10.718,15.865 17.241,19.596c-4.073,-3.083 -7.876,-7.754 -10.752,-13.423c-1.296,-2.595 -2.42,-5.392 -3.281,-8.318c-0.994,-3.425 -1.562,-6.747 -1.73,-9.86c-0.167,-3.128 0.054,-6.035 0.648,-8.622c0.236,-1.524 0.857,-3.487 1.65,-5.708c1.547,-4.328 3.684,-9.735 4.816,-15.461c0.465,-2.412 0.739,-4.877 0.712,-7.319c-0.087,-6.009 -1.375,-11.606 -3.49,-16.239c7.51,2.119 15.183,10.508 19.359,21.462c0.465,1.22 0.907,2.458 1.28,3.734c0.351,1.246 0.625,2.461 0.884,3.662c0.816,-3.765 1.04,-8.051 0.614,-12.661c-0.32,-3.486 -0.999,-7.136 -2.092,-10.889c-0.484,-1.658 -1.052,-3.266 -1.65,-4.847c-5.425,-14.192 -15.377,-25.078 -25.104,-27.821c2.747,6.012 4.416,13.271 4.53,21.047c0.049,3.178 -0.328,6.374 -0.93,9.498c-1.455,7.415 -4.24,14.425 -6.225,20.034c-1.029,2.88 -1.852,5.418 -2.142,7.399c-0.773,3.353 -1.07,7.125 -0.853,11.179c0.221,4.035 0.952,8.344 2.244,12.79" style="fill:#becbde;fill-rule:nonzero;"/><path d="M170.725,175.757c-1.112,-3.803 -2.579,-7.411 -4.279,-10.775c-4.484,-8.87 -10.717,-15.865 -17.236,-19.588c4.076,3.082 7.871,7.746 10.748,13.419c1.295,2.595 2.423,5.372 3.277,8.314c1.009,3.421 1.573,6.744 1.748,9.868c0.16,3.124 -0.076,6.039 -0.655,8.611c-0.244,1.535 -0.884,3.497 -1.665,5.711c-1.535,4.336 -3.684,9.731 -4.797,15.454c-0.468,2.419 -0.75,4.876 -0.724,7.334c0.096,5.993 1.376,11.598 3.502,16.235c-7.506,-2.126 -15.191,-10.52 -19.374,-21.474c-0.469,-1.204 -0.896,-2.454 -1.269,-3.734c-0.366,-1.238 -0.629,-2.442 -0.884,-3.657c-0.819,3.775 -1.04,8.069 -0.61,12.664c0.313,3.486 0.987,7.133 2.084,10.882c0.484,1.665 1.052,3.276 1.65,4.854c5.422,14.192 15.37,25.07 25.101,27.821c-2.751,-6.009 -4.416,-13.271 -4.538,-21.058c-0.042,-3.17 0.343,-6.363 0.945,-9.484c1.436,-7.422 4.237,-14.425 6.218,-20.037c1.033,-2.88 1.852,-5.414 2.145,-7.395c0.773,-3.361 1.074,-7.133 0.857,-11.183c-0.228,-4.038 -0.956,-8.348 -2.244,-12.782" style="fill:#becbde;fill-rule:nonzero;"/><path d="M87.458,172.969c4.039,-0.236 8.352,-0.956 12.787,-2.251c3.802,-1.113 7.422,-2.576 10.774,-4.271c8.87,-4.481 15.873,-10.718 19.596,-17.245c-3.083,4.085 -7.754,7.876 -13.427,10.745c-2.591,1.306 -5.38,2.427 -8.31,3.292c-3.421,0.998 -6.744,1.562 -9.864,1.737c-3.14,0.168 -6.035,-0.061 -8.622,-0.663c-1.532,-0.225 -3.49,-0.865 -5.712,-1.646c-4.328,-1.543 -9.734,-3.688 -15.453,-4.804c-2.412,-0.465 -4.877,-0.755 -7.327,-0.717c-6.005,0.088 -11.602,1.372 -16.239,3.49c2.119,-7.509 10.512,-15.187 21.466,-19.366c1.22,-0.465 2.465,-0.9 3.734,-1.277c1.246,-0.362 2.454,-0.625 3.666,-0.876c-3.769,-0.815 -8.059,-1.04 -12.661,-0.613c-3.487,0.312 -7.137,0.99 -10.89,2.08c-1.661,0.491 -3.269,1.044 -4.85,1.653c-14.2,5.418 -25.074,15.374 -27.821,25.097c6.009,-2.731 13.271,-4.404 21.047,-4.526c3.178,-0.046 6.374,0.331 9.498,0.941c7.411,1.444 14.418,4.225 20.034,6.211c2.884,1.04 5.418,1.855 7.403,2.156c3.353,0.773 7.121,1.067 11.171,0.853" style="fill:#becbde;fill-rule:nonzero;"/><path d="M219.251,182.83c-4.218,-6.249 -7.208,-13.16 -9.765,-18.536c-1.307,-2.77 -2.534,-5.163 -3.73,-6.778c-1.821,-2.919 -4.267,-5.792 -7.296,-8.501c-3.003,-2.697 -6.569,-5.231 -10.63,-7.444c-3.471,-1.921 -7.061,-3.429 -10.634,-4.611c-9.434,-3.105 -18.811,-3.634 -26.046,-1.657c5.056,-0.709 11.038,-0.084 17.088,1.894c2.759,0.914 5.521,2.08 8.207,3.558c3.124,1.707 5.883,3.658 8.199,5.742c2.328,2.092 4.222,4.317 5.635,6.557c0.926,1.25 1.852,3.086 2.877,5.228c1.966,4.145 4.267,9.479 7.529,14.306c1.368,2.031 2.907,3.978 4.663,5.689c4.306,4.172 9.183,7.22 13.957,9.011c-6.809,3.806 -18.186,3.303 -28.881,-1.486c-1.189,-0.534 -2.37,-1.105 -3.532,-1.738c-1.135,-0.625 -2.191,-1.287 -3.208,-1.962c2.073,3.242 4.965,6.435 8.508,9.381c2.686,2.236 5.742,4.347 9.175,6.218c1.52,0.834 3.059,1.569 4.591,2.263c13.865,6.21 28.606,6.862 37.422,1.92c-6.183,-2.309 -12.493,-6.26 -18.086,-11.674c-2.282,-2.214 -4.267,-4.736 -6.043,-7.38" style="fill:#becbde;fill-rule:nonzero;"/><path d="M236.64,113.188c-3.181,0.046 -6.362,-0.335 -9.479,-0.941c-7.43,-1.44 -14.436,-4.222 -20.052,-6.226c-2.873,-1.017 -5.407,-1.844 -7.388,-2.133c-3.353,-0.77 -7.121,-1.071 -11.183,-0.854c-4.042,0.217 -8.34,0.957 -12.779,2.248c-3.806,1.113 -7.418,2.564 -10.771,4.264c-8.881,4.492 -15.88,10.733 -19.606,17.252c3.082,-4.081 7.761,-7.876 13.434,-10.745c2.595,-1.318 5.364,-2.434 8.306,-3.296c3.425,-0.994 6.755,-1.558 9.868,-1.733c3.136,-0.164 6.035,0.068 8.622,0.651c1.532,0.233 3.483,0.873 5.708,1.658c4.332,1.535 9.738,3.684 15.446,4.808c2.438,0.457 4.88,0.755 7.334,0.716c6.012,-0.091 11.602,-1.379 16.239,-3.49c-2.123,7.506 -10.516,15.187 -21.459,19.359c-1.223,0.465 -2.461,0.903 -3.745,1.281c-1.238,0.354 -2.454,0.624 -3.646,0.876c3.768,0.819 8.05,1.044 12.657,0.613c3.475,-0.32 7.128,-0.99 10.885,-2.088c1.658,-0.484 3.269,-1.047 4.839,-1.642c14.192,-5.425 25.078,-15.381 27.825,-25.104c-6.016,2.735 -13.267,4.404 -21.055,4.526" style="fill:#becbde;fill-rule:nonzero;"/><path d="M135.303,124.847c-0.705,-5.063 -0.091,-11.053 1.898,-17.092c0.91,-2.754 2.084,-5.513 3.554,-8.203c1.707,-3.124 3.662,-5.871 5.746,-8.195c2.092,-2.332 4.313,-4.222 6.546,-5.631c1.249,-0.923 3.093,-1.86 5.235,-2.877c4.141,-1.978 9.487,-4.275 14.303,-7.529c2.034,-1.375 3.977,-2.907 5.692,-4.663c4.172,-4.306 7.228,-9.179 9.018,-13.957c3.799,6.809 3.3,18.167 -1.486,28.873c-0.544,1.185 -1.108,2.374 -1.748,3.532c-0.621,1.135 -1.277,2.187 -1.966,3.216c3.253,-2.084 6.439,-4.961 9.399,-8.512c2.218,-2.69 4.336,-5.746 6.214,-9.182c0.823,-1.513 1.566,-3.041 2.267,-4.584c6.203,-13.868 6.847,-28.606 1.917,-37.43c-2.313,6.191 -6.272,12.509 -11.674,18.09c-2.214,2.283 -4.744,4.268 -7.388,6.047c-6.252,4.225 -13.164,7.197 -18.54,9.758c-2.785,1.318 -5.159,2.529 -6.77,3.73c-2.915,1.825 -5.795,4.286 -8.508,7.3c-2.694,3.01 -5.224,6.583 -7.449,10.63c-1.905,3.482 -3.425,7.056 -4.595,10.63c-3.105,9.449 -3.642,18.806 -1.665,26.049" style="fill:#becbde;fill-rule:nonzero;"/><g><path d="M162.454,141.233c-6.275,-2.069 -14.905,-5.837 -23.988,-7.353c-2.663,-0.45 -5.353,-0.701 -8.028,-0.667c-7.788,0.122 -15.042,1.787 -21.055,4.534c0.496,-1.753 1.315,-3.498 2.298,-5.231c-1.616,2.149 -2.831,4.37 -3.46,6.591c4.641,-2.118 10.238,-3.402 16.231,-3.494c2.069,-0.03 4.157,0.176 6.199,0.519c7.007,1.169 13.667,4.069 18.51,5.68c1.436,0.458 2.716,0.812 3.791,0.976c2.968,0.689 6.397,0.876 10.085,0.533c1.524,-0.141 3.124,-0.4 4.736,-0.728c-0.13,-0.03 -0.278,-0.042 -0.404,-0.076c-1.395,-0.209 -3.063,-0.674 -4.915,-1.284" style="fill:#c6d9ee;fill-rule:nonzero;"/></g><g><path d="M113.554,134.77c6.271,2.054 14.901,5.837 23.976,7.354c2.664,0.438 5.342,0.701 8.032,0.655c7.784,-0.11 15.042,-1.787 21.054,-4.519c-0.514,1.749 -1.318,3.494 -2.312,5.235c1.638,-2.148 2.853,-4.385 3.467,-6.606c-4.633,2.114 -10.234,3.402 -16.231,3.494c-2.065,0.034 -4.145,-0.168 -6.199,-0.511c-7.007,-1.166 -13.655,-4.077 -18.494,-5.677c-1.444,-0.465 -2.713,-0.823 -3.791,-0.987c-2.983,-0.682 -6.405,-0.876 -10.093,-0.533c-1.539,0.137 -3.12,0.408 -4.732,0.728c0.137,0.026 0.263,0.045 0.408,0.08c1.394,0.209 3.055,0.67 4.915,1.287" style="fill:#c6d9ee;fill-rule:nonzero;"/></g><g><path d="M141.232,113.553c-2.065,6.271 -5.829,14.905 -7.349,23.977c-0.45,2.655 -0.698,5.357 -0.652,8.027c0.111,7.788 1.768,15.05 4.515,21.059c-1.752,-0.496 -3.498,-1.311 -5.239,-2.302c2.157,1.623 4.386,2.835 6.611,3.46c-2.115,-4.633 -3.403,-10.234 -3.494,-16.239c-0.031,-2.068 0.164,-4.145 0.507,-6.199c1.173,-6.999 4.069,-13.651 5.669,-18.494c0.473,-1.44 0.831,-2.709 0.994,-3.791c0.686,-2.983 0.873,-6.404 0.53,-10.077c-0.137,-1.54 -0.396,-3.128 -0.724,-4.748c-0.034,0.134 -0.046,0.275 -0.072,0.416c-0.217,1.394 -0.682,3.051 -1.296,4.911" style="fill:#c6d9ee;fill-rule:nonzero;"/></g><g><path d="M134.762,162.449c2.076,-6.271 5.845,-14.901 7.357,-23.977c0.446,-2.67 0.705,-5.353 0.659,-8.039c-0.106,-7.776 -1.771,-15.038 -4.522,-21.047c1.756,0.496 3.505,1.311 5.239,2.309c-2.149,-1.63 -4.378,-2.838 -6.603,-3.467c2.122,4.633 3.406,10.238 3.497,16.235c0.027,2.072 -0.167,4.145 -0.514,6.199c-1.177,6.999 -4.081,13.663 -5.685,18.498c-0.457,1.44 -0.823,2.72 -0.975,3.791c-0.69,2.983 -0.876,6.412 -0.537,10.089c0.141,1.539 0.404,3.124 0.724,4.736c0.03,-0.134 0.049,-0.282 0.08,-0.408c0.209,-1.398 0.67,-3.056 1.28,-4.919" style="fill:#c6d9ee;fill-rule:nonzero;"/></g><g><g><path d="M185.809,85.576c4.797,-10.695 5.285,-22.068 1.49,-28.869c-1.795,4.77 -4.85,9.647 -9.022,13.949c-1.703,1.76 -3.658,3.288 -5.693,4.667c-4.812,3.261 -10.157,5.551 -14.299,7.525c-2.137,1.021 -3.985,1.955 -5.227,2.88c-2.244,1.406 -4.466,3.296 -6.557,5.635c-2.084,2.317 -4.039,5.064 -5.746,8.204c-1.471,2.674 -2.644,5.437 -3.555,8.191c-1.977,6.043 -2.598,12.029 -1.897,17.092c0.529,1.936 1.204,3.749 2.08,5.334c2.313,-6.191 6.264,-12.504 11.682,-18.086c1.867,-1.917 3.959,-3.643 6.153,-5.212c7.491,-5.342 16.262,-8.786 22.152,-11.754c1.756,-0.892 3.254,-1.726 4.385,-2.568c0.118,-0.077 0.229,-0.168 0.339,-0.24c0.69,-1.025 1.345,-2.081 1.97,-3.212c0.636,-1.159 1.2,-2.351 1.745,-3.536" style="fill:#588fad;fill-rule:nonzero;"/></g><g><path d="M190.425,185.81c10.71,4.778 22.068,5.285 28.88,1.486c-4.774,-1.798 -9.647,-4.843 -13.956,-9.011c-1.757,-1.718 -3.296,-3.665 -4.664,-5.7c-3.261,-4.819 -5.559,-10.157 -7.528,-14.299c-1.025,-2.134 -1.951,-3.981 -2.877,-5.231c-1.414,-2.244 -3.303,-4.466 -5.635,-6.554c-2.317,-2.084 -5.075,-4.034 -8.199,-5.741c-2.686,-1.475 -5.449,-2.652 -8.2,-3.563c-6.039,-1.977 -12.039,-2.598 -17.095,-1.893c-1.928,0.525 -3.746,1.196 -5.327,2.08c6.184,2.305 12.501,6.264 18.087,11.678c1.916,1.874 3.638,3.951 5.204,6.149c5.349,7.499 8.786,16.262 11.754,22.167c0.884,1.745 1.734,3.243 2.572,4.378c0.072,0.111 0.164,0.232 0.244,0.343c1.017,0.686 2.072,1.341 3.208,1.966c1.162,0.632 2.351,1.2 3.532,1.745" style="fill:#588fad;fill-rule:nonzero;"/></g><g><path d="M141.27,208.881c4.183,10.954 11.868,19.332 19.374,21.458c-2.126,-4.637 -3.406,-10.241 -3.502,-16.235c-0.026,-2.446 0.259,-4.915 0.724,-7.334c1.113,-5.723 3.265,-11.118 4.805,-15.446c0.773,-2.221 1.421,-4.18 1.657,-5.704c0.587,-2.587 0.815,-5.498 0.655,-8.626c-0.175,-3.116 -0.739,-6.446 -1.748,-9.864c-0.854,-2.938 -1.974,-5.723 -3.277,-8.314c-2.877,-5.677 -6.671,-10.34 -10.737,-13.422c-1.749,-0.995 -3.494,-1.799 -5.25,-2.302c2.743,6.009 4.412,13.267 4.53,21.043c0.038,2.69 -0.209,5.38 -0.663,8.04c-1.52,9.075 -5.288,17.713 -7.357,23.98c-0.614,1.863 -1.078,3.513 -1.28,4.908c-0.038,0.137 -0.061,0.281 -0.08,0.419c0.247,1.207 0.514,2.411 0.88,3.653c0.373,1.288 0.8,2.527 1.269,3.746" style="fill:#588fad;fill-rule:nonzero;"/></g><g><path d="M134.726,67.13c-4.172,-10.957 -11.849,-19.351 -19.355,-21.465c2.111,4.633 3.399,10.233 3.486,16.234c0.042,2.45 -0.243,4.911 -0.712,7.327c-1.113,5.723 -3.269,11.129 -4.805,15.457c-0.792,2.222 -1.421,4.184 -1.657,5.708c-0.594,2.587 -0.819,5.494 -0.648,8.622c0.164,3.121 0.732,6.435 1.73,9.861c0.861,2.941 1.985,5.722 3.292,8.317c2.861,5.673 6.664,10.34 10.748,13.423c1.734,0.99 3.483,1.802 5.235,2.297c-2.743,-6.008 -4.412,-13.27 -4.518,-21.047c-0.058,-2.682 0.198,-5.376 0.647,-8.031c1.52,-9.08 5.289,-17.706 7.361,-23.981c0.614,-1.867 1.075,-3.513 1.28,-4.919c0.039,-0.133 0.046,-0.278 0.08,-0.407c-0.259,-1.204 -0.525,-2.42 -0.883,-3.665c-0.37,-1.277 -0.812,-2.515 -1.281,-3.731" style="fill:#588fad;fill-rule:nonzero;"/></g><g><path d="M90.204,190.435c-4.786,10.695 -5.296,22.057 -1.49,28.865c1.783,-4.77 4.839,-9.647 9.011,-13.949c1.718,-1.752 3.661,-3.299 5.707,-4.667c4.809,-3.265 10.151,-5.555 14.292,-7.525c2.134,-1.025 3.978,-1.95 5.224,-2.88c2.255,-1.414 4.461,-3.3 6.561,-5.635c2.084,-2.317 4.031,-5.075 5.745,-8.2c1.467,-2.686 2.644,-5.44 3.547,-8.206c1.993,-6.036 2.61,-12.033 1.902,-17.092c-0.526,-1.932 -1.193,-3.738 -2.077,-5.327c-2.313,6.188 -6.267,12.501 -11.682,18.083c-1.87,1.924 -3.954,3.646 -6.149,5.22c-7.498,5.345 -16.254,8.774 -22.171,11.754c-1.737,0.887 -3.238,1.718 -4.37,2.564c-0.107,0.068 -0.236,0.164 -0.347,0.24c-0.678,1.025 -1.337,2.076 -1.958,3.212c-0.644,1.162 -1.223,2.354 -1.745,3.543" style="fill:#588fad;fill-rule:nonzero;"/></g><g><path d="M85.572,90.197c-10.695,-4.789 -22.065,-5.288 -28.862,-1.482c4.767,1.787 9.644,4.835 13.949,9.015c1.756,1.699 3.296,3.654 4.663,5.681c3.254,4.827 5.559,10.165 7.529,14.31c1.017,2.134 1.951,3.978 2.877,5.224c1.409,2.24 3.303,4.469 5.631,6.561c2.32,2.08 5.067,4.031 8.211,5.745c2.678,1.471 5.437,2.645 8.195,3.544c6.043,1.992 12.029,2.61 17.107,1.901c1.921,-0.526 3.727,-1.185 5.312,-2.065c-6.18,-2.317 -12.505,-6.275 -18.083,-11.689c-1.92,-1.875 -3.646,-3.959 -5.208,-6.146c-5.353,-7.498 -8.79,-16.265 -11.758,-22.171c-0.888,-1.741 -1.722,-3.238 -2.568,-4.378c-0.069,-0.11 -0.153,-0.224 -0.24,-0.343c-1.021,-0.682 -2.073,-1.341 -3.205,-1.958c-1.169,-0.64 -2.354,-1.215 -3.55,-1.749" style="fill:#588fad;fill-rule:nonzero;"/></g><g><path d="M208.881,134.726c10.943,-4.172 19.352,-11.854 21.455,-19.359c-4.633,2.11 -10.227,3.402 -16.235,3.49c-2.454,0.042 -4.9,-0.256 -7.327,-0.717c-5.715,-1.108 -11.118,-3.265 -15.45,-4.804c-2.228,-0.785 -4.183,-1.421 -5.711,-1.654c-2.587,-0.59 -5.486,-0.819 -8.622,-0.655c-3.105,0.171 -6.443,0.739 -9.868,1.737c-2.942,0.854 -5.711,1.985 -8.306,3.292c-5.673,2.869 -10.352,6.668 -13.431,10.752c-0.99,1.734 -1.802,3.475 -2.289,5.224c6.012,-2.736 13.266,-4.405 21.031,-4.53c2.686,-0.031 5.384,0.221 8.047,0.674c9.083,1.509 17.709,5.277 23.981,7.35c1.855,0.609 3.52,1.078 4.918,1.284c0.134,0.034 0.275,0.045 0.416,0.076c1.192,-0.252 2.408,-0.526 3.646,-0.88c1.284,-0.374 2.518,-0.804 3.745,-1.28" style="fill:#588fad;fill-rule:nonzero;"/></g><g><path d="M67.131,141.271c-10.958,4.191 -19.351,11.864 -21.466,19.366c4.637,-2.111 10.23,-3.402 16.239,-3.49c2.446,-0.034 4.911,0.248 7.323,0.716c5.722,1.113 11.125,3.262 15.457,4.805c2.218,0.781 4.176,1.421 5.704,1.646c2.591,0.602 5.498,0.831 8.633,0.663c3.113,-0.175 6.436,-0.732 9.857,-1.738c2.938,-0.857 5.719,-1.977 8.31,-3.295c5.673,-2.858 10.344,-6.656 13.426,-10.741c0.991,-1.73 1.799,-3.486 2.298,-5.235c-6.009,2.736 -13.274,4.408 -21.047,4.523c-2.682,0.045 -5.376,-0.206 -8.031,-0.656c-9.08,-1.516 -17.702,-5.284 -23.981,-7.357c-1.867,-0.613 -3.513,-1.074 -4.919,-1.292c-0.126,-0.026 -0.267,-0.041 -0.408,-0.068c-1.204,0.259 -2.415,0.518 -3.665,0.88c-1.269,0.377 -2.514,0.804 -3.73,1.273" style="fill:#588fad;fill-rule:nonzero;"/></g></g><g><path d="M137.327,148.742c0.883,3.101 2.175,6.267 3.983,9.336c0.154,0.253 0.339,0.5 0.501,0.741c-0.178,-5 -1.206,-9.514 -3.202,-13.034c-0.366,0.985 -0.837,1.97 -1.282,2.957" style="fill:#fff;fill-rule:nonzero;"/></g><g><path d="M129.686,145.204c-1.553,2.757 -2.879,5.815 -3.777,9.152c-0.134,0.496 -0.221,1.005 -0.333,1.509c3.63,-3.782 6.214,-7.878 7.349,-11.924c-1.02,0.464 -2.14,0.87 -3.239,1.263" style="fill:#fff;fill-rule:nonzero;"/></g><g><path d="M145.105,146.048c2.906,1.644 6.142,3.045 9.69,3.988c0.273,0.076 0.557,0.115 0.826,0.18c-3.721,-3.516 -7.716,-6.03 -11.685,-7.144c0.444,0.938 0.79,1.969 1.169,2.976" style="fill:#fff;fill-rule:nonzero;"/></g><g><path d="M148.95,138.772c3.165,-0.838 6.37,-2.075 9.47,-3.827c0.463,-0.245 0.879,-0.54 1.297,-0.802c-5.366,0.067 -10.183,1.143 -13.928,3.247c1.055,0.38 2.112,0.9 3.161,1.382" style="fill:#fff;fill-rule:nonzero;"/></g><g><path d="M127.046,137.23c-3.163,0.843 -6.371,2.082 -9.473,3.819c-0.448,0.251 -0.86,0.544 -1.296,0.815c5.377,-0.074 10.187,-1.157 13.941,-3.249c-1.067,-0.387 -2.114,-0.903 -3.172,-1.385" style="fill:#fff;fill-rule:nonzero;"/></g><g><path d="M138.676,127.271c-0.884,-3.11 -2.181,-6.277 -3.987,-9.34c-0.159,-0.254 -0.339,-0.491 -0.502,-0.744c0.189,4.996 1.223,9.503 3.206,13.028c0.349,-0.977 0.837,-1.961 1.283,-2.944" style="fill:#fff;fill-rule:nonzero;"/></g><g><path d="M146.314,130.792c1.562,-2.746 2.876,-5.805 3.785,-9.146c0.124,-0.491 0.219,-1.001 0.322,-1.501c-3.623,3.781 -6.204,7.869 -7.351,11.923c1.024,-0.475 2.135,-0.867 3.244,-1.276" style="fill:#fff;fill-rule:nonzero;"/></g><g><path d="M130.904,129.952c-2.911,-1.643 -6.15,-3.035 -9.698,-3.988c-0.27,-0.074 -0.563,-0.12 -0.842,-0.181c3.719,3.515 7.731,6.028 11.706,7.146c-0.441,-0.945 -0.788,-1.964 -1.166,-2.977" style="fill:#fff;fill-rule:nonzero;"/></g><g><g><path d="M159.367,124.816c-2.69,2.982 -7.286,3.218 -10.257,0.528c-2.981,-2.685 -3.215,-7.289 -0.533,-10.262c2.69,-2.987 7.288,-3.232 10.268,-0.523c2.974,2.694 3.202,7.287 0.522,10.257" style="fill:#ffbb35;fill-rule:nonzero;stroke:#e5f0f7;stroke-width:1.79px;"/></g><g><path d="M143.793,113.59c0.191,3.984 -2.893,7.407 -6.896,7.607c-4.01,0.211 -7.418,-2.869 -7.629,-6.883c-0.196,-4.015 2.892,-7.419 6.895,-7.626c4.014,-0.204 7.418,2.88 7.63,6.902" style="fill:#ffbb35;fill-rule:nonzero;stroke:#e5f0f7;stroke-width:1.79px;"/></g><g><path d="M124.819,116.623c2.982,2.701 3.217,7.302 0.531,10.277c-2.691,2.971 -7.283,3.218 -10.259,0.522c-2.987,-2.696 -3.24,-7.293 -0.538,-10.264c2.696,-2.981 7.294,-3.213 10.266,-0.535" style="fill:#ffbb35;fill-rule:nonzero;stroke:#e5f0f7;stroke-width:1.79px;"/></g><g><path d="M113.57,132.214c4.007,-0.206 7.435,2.88 7.63,6.887c0.195,4.011 -2.88,7.42 -6.883,7.633c-4.011,0.191 -7.427,-2.884 -7.638,-6.898c-0.205,-3.999 2.873,-7.415 6.891,-7.622" style="fill:#ffbb35;fill-rule:nonzero;stroke:#e5f0f7;stroke-width:1.79px;"/></g><g><path d="M116.629,151.183c1.404,-1.551 3.326,-2.356 5.267,-2.391c1.778,-0.033 3.572,0.579 4.994,1.858c2.997,2.713 3.214,7.296 0.526,10.264c-2.681,3 -7.28,3.234 -10.257,0.533c-2.976,-2.69 -3.218,-7.291 -0.53,-10.264" style="fill:#ffbb35;fill-rule:nonzero;stroke:#e5f0f7;stroke-width:1.79px;"/></g><g><path d="M132.211,162.434c0.206,4.012 3.627,7.101 7.634,6.894c4.007,-0.206 7.092,-3.63 6.886,-7.641c-0.206,-4.011 -3.627,-7.1 -7.634,-6.894c-4.007,0.206 -7.092,3.63 -6.886,7.641Z" style="fill:#ffbb35;stroke:#e5f0f7;stroke-width:1.79px;stroke-linejoin:miter;stroke-miterlimit:4;"/></g><g><path d="M151.174,159.366c2.976,2.688 7.576,2.452 10.264,-0.526c2.689,-2.978 2.456,-7.578 -0.521,-10.265c-2.976,-2.687 -7.576,-2.451 -10.264,0.527c-2.689,2.978 -2.456,7.577 0.521,10.264Z" style="fill:#ffbb35;stroke:#e5f0f7;stroke-width:1.79px;stroke-linejoin:miter;stroke-miterlimit:4;"/></g><g><path d="M162.428,143.788c4.009,-0.202 7.1,-3.618 6.898,-7.623c-0.202,-4.005 -3.62,-7.093 -7.63,-6.891c-4.009,0.202 -7.1,3.618 -6.898,7.623c0.202,4.005 3.62,7.093 7.63,6.891Z" style="fill:#ffbb35;stroke:#e5f0f7;stroke-width:1.79px;stroke-linejoin:miter;stroke-miterlimit:4;"/></g><g><path d="M152.737,132.383c3.097,8.128 -0.97,17.244 -9.099,20.341c-8.133,3.115 -17.262,-0.956 -20.364,-9.086c-3.114,-8.142 0.972,-17.261 9.097,-20.357c8.137,-3.096 17.254,0.975 20.366,9.102" style="fill:#ffbb35;fill-rule:nonzero;stroke:#e5f0f7;stroke-width:1.79px;"/></g></g></g></g></svg>