<?xml version="1.0" encoding="UTF-8" standalone="no"?>
<!DOCTYPE svg PUBLIC "-//W3C//DTD SVG 1.1//EN" "http://www.w3.org/Graphics/SVG/1.1/DTD/svg11.dtd">
<svg width="100%" height="100%" viewBox="0 0 435 138" version="1.1" xmlns="http://www.w3.org/2000/svg" xmlns:xlink="http://www.w3.org/1999/xlink" xml:space="preserve" xmlns:serif="http://www.serif.com/" style="fill-rule:evenodd;clip-rule:evenodd;stroke-linejoin:round;stroke-miterlimit:2;">
    <g transform="matrix(0.48,0,0,0.48,0,0)">
        <g id="Artboard1" transform="matrix(1,0,0,1,-4.51423,-3.80522)">
            <rect x="4.514" y="3.805" width="904.637" height="287.152" style="fill:none;"/>
            <g id="Calque-1" serif:id="Calque 1" transform="matrix(4.16667,0,0,4.16667,-30.9816,0.805219)">
                <g>
                    <g>
                        <g transform="matrix(0.952517,0,0,0.952517,21.7544,29.4647)">
                            <path d="M0,-6.699C1.107,-5.057 1.891,-3.241 2.562,-1.832C2.907,-1.105 3.223,-0.478 3.539,-0.053C4.018,0.711 4.662,1.467 5.455,2.178C6.244,2.886 7.182,3.55 8.246,4.133C9.16,4.632 10.099,5.031 11.038,5.341C13.515,6.157 15.974,6.296 17.878,5.777C16.545,5.963 14.974,5.8 13.387,5.278C12.665,5.04 11.939,4.732 11.237,4.347C10.412,3.896 9.692,3.384 9.082,2.838C8.471,2.29 7.973,1.705 7.604,1.117C7.362,0.79 7.117,0.306 6.849,-0.254C6.332,-1.342 5.728,-2.742 4.874,-4.01C4.514,-4.542 4.11,-5.055 3.65,-5.502C2.518,-6.598 1.239,-7.398 -0.014,-7.867C1.773,-8.866 4.755,-8.735 7.563,-7.478C7.877,-7.339 8.187,-7.187 8.494,-7.02C8.792,-6.857 9.068,-6.684 9.337,-6.505C8.789,-7.355 8.035,-8.193 7.101,-8.968C6.395,-9.556 5.592,-10.109 4.694,-10.602C4.294,-10.82 3.893,-11.013 3.487,-11.195C-0.153,-12.824 -4.02,-12.995 -6.335,-11.699C-4.712,-11.092 -3.053,-10.056 -1.588,-8.635C-0.989,-8.053 -0.469,-7.391 0,-6.699" style="fill:rgb(37,47,62);fill-rule:nonzero;"/>
                        </g>
                        <g transform="matrix(0.952517,0,0,0.952517,42.741,60.6385)">
                            <path d="M0,-24.209C0.187,-22.881 0.023,-21.307 -0.5,-19.723C-0.735,-18.998 -1.044,-18.276 -1.43,-17.569C-1.879,-16.749 -2.393,-16.026 -2.937,-15.417C-3.488,-14.804 -4.071,-14.309 -4.66,-13.938C-4.988,-13.696 -5.473,-13.451 -6.031,-13.185C-7.118,-12.665 -8.519,-12.063 -9.787,-11.207C-10.318,-10.85 -10.833,-10.445 -11.279,-9.982C-12.374,-8.854 -13.177,-7.573 -13.645,-6.322C-14.644,-8.108 -14.511,-11.093 -13.253,-13.897C-13.117,-14.21 -12.964,-14.521 -12.798,-14.828C-12.635,-15.125 -12.459,-15.403 -12.282,-15.67C-13.133,-15.125 -13.971,-14.37 -14.746,-13.437C-15.333,-12.729 -15.886,-11.927 -16.379,-11.026C-16.597,-10.628 -16.791,-10.228 -16.971,-9.821C-18.602,-6.185 -18.772,-2.315 -17.476,0C-16.872,-1.623 -15.832,-3.279 -14.412,-4.746C-13.829,-5.347 -13.169,-5.867 -12.473,-6.335C-10.834,-7.443 -9.019,-8.227 -7.609,-8.896C-6.881,-9.24 -6.256,-9.561 -5.832,-9.875C-5.066,-10.354 -4.312,-10.998 -3.6,-11.79C-2.89,-12.581 -2.228,-13.517 -1.644,-14.581C-1.143,-15.494 -0.744,-16.432 -0.435,-17.37C0.38,-19.851 0.518,-22.307 0,-24.209" style="fill:rgb(37,47,62);fill-rule:nonzero;"/>
                        </g>
                        <g transform="matrix(0.952517,0,0,0.952517,33.8869,11.9593)">
                            <path d="M0,13.539C0.292,14.536 0.673,15.483 1.121,16.365C2.298,18.696 3.934,20.529 5.646,21.508C4.577,20.699 3.579,19.473 2.824,17.985C2.484,17.304 2.189,16.57 1.963,15.802C1.702,14.903 1.553,14.031 1.509,13.214C1.465,12.393 1.523,11.63 1.679,10.951C1.741,10.551 1.904,10.036 2.112,9.453C2.518,8.317 3.079,6.898 3.376,5.395C3.498,4.762 3.57,4.115 3.563,3.474C3.54,1.897 3.202,0.428 2.647,-0.788C4.618,-0.232 6.632,1.97 7.728,4.845C7.85,5.165 7.966,5.49 8.064,5.825C8.156,6.152 8.228,6.471 8.296,6.786C8.51,5.798 8.569,4.673 8.457,3.463C8.373,2.548 8.195,1.59 7.908,0.605C7.781,0.17 7.632,-0.252 7.475,-0.667C6.051,-4.392 3.439,-7.249 0.886,-7.969C1.607,-6.391 2.045,-4.486 2.075,-2.445C2.088,-1.611 1.989,-0.772 1.831,0.048C1.449,1.994 0.718,3.834 0.197,5.306C-0.073,6.062 -0.289,6.728 -0.365,7.248C-0.568,8.128 -0.646,9.118 -0.589,10.182C-0.531,11.241 -0.339,12.372 0,13.539" style="fill:rgb(37,47,62);fill-rule:nonzero;"/>
                        </g>
                        <g transform="matrix(0.952517,0,0,0.952517,50.2472,56.626)">
                            <path d="M0,-13.537C-0.292,-14.535 -0.677,-15.482 -1.123,-16.365C-2.3,-18.693 -3.936,-20.529 -5.647,-21.506C-4.577,-20.697 -3.581,-19.473 -2.826,-17.984C-2.486,-17.303 -2.19,-16.574 -1.966,-15.802C-1.701,-14.904 -1.553,-14.032 -1.507,-13.212C-1.465,-12.392 -1.527,-11.627 -1.679,-10.952C-1.743,-10.549 -1.911,-10.034 -2.116,-9.453C-2.519,-8.315 -3.083,-6.899 -3.375,-5.397C-3.498,-4.762 -3.572,-4.117 -3.565,-3.472C-3.54,-1.899 -3.204,-0.428 -2.646,0.789C-4.616,0.231 -6.633,-1.972 -7.731,-4.847C-7.854,-5.163 -7.966,-5.491 -8.064,-5.827C-8.16,-6.152 -8.229,-6.468 -8.296,-6.787C-8.511,-5.796 -8.569,-4.669 -8.456,-3.463C-8.374,-2.548 -8.197,-1.591 -7.909,-0.607C-7.782,-0.17 -7.633,0.253 -7.476,0.667C-6.053,4.392 -3.442,7.247 -0.888,7.969C-1.61,6.392 -2.047,4.486 -2.079,2.442C-2.09,1.61 -1.989,0.772 -1.831,-0.047C-1.454,-1.995 -0.719,-3.833 -0.199,-5.306C0.072,-6.062 0.287,-6.727 0.364,-7.247C0.567,-8.129 0.646,-9.119 0.589,-10.182C0.529,-11.242 0.338,-12.373 0,-13.537" style="fill:rgb(37,47,62);fill-rule:nonzero;"/>
                        </g>
                        <g transform="matrix(0.952517,0,0,0.952517,29.4304,34.3652)">
                            <path d="M0,9.102C1.06,9.04 2.192,8.851 3.356,8.511C4.354,8.219 5.304,7.835 6.184,7.39C8.512,6.214 10.35,4.577 11.327,2.864C10.518,3.936 9.292,4.931 7.803,5.684C7.123,6.027 6.391,6.321 5.622,6.548C4.724,6.81 3.852,6.958 3.033,7.004C2.209,7.048 1.449,6.988 0.77,6.83C0.368,6.771 -0.146,6.603 -0.729,6.398C-1.865,5.993 -3.284,5.43 -4.785,5.137C-5.418,5.015 -6.065,4.939 -6.708,4.949C-8.284,4.972 -9.753,5.309 -10.97,5.865C-10.414,3.894 -8.211,1.879 -5.336,0.782C-5.016,0.66 -4.689,0.546 -4.356,0.447C-4.029,0.352 -3.712,0.283 -3.394,0.217C-4.383,0.003 -5.509,-0.056 -6.717,0.056C-7.632,0.138 -8.59,0.316 -9.575,0.602C-10.011,0.731 -10.433,0.876 -10.848,1.036C-14.575,2.458 -17.429,5.071 -18.15,7.623C-16.573,6.906 -14.667,6.467 -12.626,6.435C-11.792,6.423 -10.953,6.522 -10.133,6.682C-8.188,7.061 -6.349,7.791 -4.875,8.312C-4.118,8.585 -3.453,8.799 -2.932,8.878C-2.052,9.081 -1.063,9.158 0,9.102" style="fill:rgb(37,47,62);fill-rule:nonzero;"/>
                        </g>
                        <g transform="matrix(0.952517,0,0,0.952517,62.3787,39.123)">
                            <path d="M0,6.695C-1.107,5.055 -1.892,3.241 -2.563,1.83C-2.906,1.103 -3.228,0.475 -3.542,0.051C-4.02,-0.715 -4.662,-1.469 -5.457,-2.18C-6.245,-2.888 -7.181,-3.553 -8.247,-4.134C-9.158,-4.638 -10.1,-5.034 -11.038,-5.344C-13.514,-6.159 -15.975,-6.298 -17.874,-5.779C-16.547,-5.965 -14.977,-5.801 -13.389,-5.282C-12.665,-5.042 -11.94,-4.736 -11.235,-4.348C-10.415,-3.9 -9.691,-3.388 -9.083,-2.841C-8.472,-2.292 -7.975,-1.708 -7.604,-1.12C-7.361,-0.792 -7.118,-0.31 -6.849,0.252C-6.333,1.34 -5.729,2.74 -4.873,4.007C-4.514,4.54 -4.11,5.051 -3.649,5.5C-2.519,6.595 -1.239,7.395 0.014,7.865C-1.773,8.864 -4.759,8.732 -7.566,7.475C-7.878,7.335 -8.188,7.185 -8.493,7.019C-8.791,6.855 -9.068,6.681 -9.335,6.504C-8.791,7.355 -8.032,8.193 -7.102,8.966C-6.397,9.553 -5.595,10.107 -4.694,10.598C-4.295,10.817 -3.891,11.01 -3.489,11.192C0.15,12.822 4.019,12.993 6.333,11.696C4.71,11.09 3.054,10.053 1.586,8.632C0.987,8.051 0.466,7.389 0,6.695" style="fill:rgb(37,47,62);fill-rule:nonzero;"/>
                        </g>
                        <g transform="matrix(0.952517,0,0,0.952517,66.726,31.6816)">
                            <path d="M0,-3.771C-0.835,-3.759 -1.67,-3.859 -2.488,-4.018C-4.438,-4.396 -6.277,-5.126 -7.751,-5.652C-8.505,-5.919 -9.17,-6.136 -9.69,-6.212C-10.57,-6.414 -11.559,-6.493 -12.625,-6.436C-13.686,-6.379 -14.814,-6.185 -15.979,-5.846C-16.978,-5.554 -17.926,-5.173 -18.806,-4.727C-21.137,-3.548 -22.974,-1.91 -23.952,-0.199C-23.143,-1.27 -21.915,-2.266 -20.426,-3.019C-19.745,-3.365 -19.018,-3.658 -18.246,-3.884C-17.347,-4.145 -16.473,-4.293 -15.656,-4.339C-14.833,-4.382 -14.072,-4.321 -13.393,-4.168C-12.991,-4.107 -12.479,-3.939 -11.895,-3.733C-10.758,-3.33 -9.339,-2.766 -7.841,-2.471C-7.201,-2.351 -6.56,-2.273 -5.916,-2.283C-4.338,-2.307 -2.871,-2.645 -1.654,-3.199C-2.211,-1.229 -4.414,0.787 -7.286,1.882C-7.607,2.004 -7.932,2.119 -8.269,2.218C-8.594,2.311 -8.913,2.382 -9.226,2.448C-8.237,2.663 -7.113,2.722 -5.904,2.609C-4.992,2.525 -4.033,2.349 -3.047,2.061C-2.612,1.934 -2.189,1.786 -1.777,1.63C1.948,0.206 4.805,-2.407 5.526,-4.959C3.947,-4.241 2.044,-3.803 0,-3.771" style="fill:rgb(37,47,62);fill-rule:nonzero;"/>
                        </g>
                    </g>
                    <g transform="matrix(0.952517,0,0,0.952517,41.3917,7.94595)">
                        <path d="M0,24.208C-0.185,22.879 -0.024,21.307 0.498,19.722C0.737,18.999 1.045,18.275 1.431,17.569C1.879,16.749 2.392,16.028 2.939,15.418C3.488,14.806 4.071,14.31 4.657,13.94C4.985,13.698 5.469,13.452 6.031,13.185C7.118,12.666 8.521,12.063 9.785,11.209C10.319,10.848 10.829,10.446 11.279,9.985C12.374,8.855 13.176,7.576 13.646,6.322C14.643,8.109 14.512,11.09 13.256,13.9C13.113,14.211 12.965,14.523 12.797,14.827C12.634,15.125 12.462,15.401 12.281,15.671C13.135,15.124 13.971,14.369 14.748,13.437C15.33,12.731 15.886,11.929 16.379,11.027C16.595,10.63 16.79,10.229 16.974,9.824C18.602,6.184 18.771,2.316 17.477,0C16.87,1.625 15.831,3.283 14.413,4.748C13.832,5.347 13.168,5.868 12.474,6.335C10.833,7.444 9.019,8.224 7.608,8.896C6.877,9.242 6.254,9.56 5.831,9.875C5.066,10.354 4.31,11 3.598,11.791C2.891,12.581 2.227,13.519 1.643,14.581C1.143,15.495 0.744,16.433 0.437,17.371C-0.378,19.851 -0.519,22.307 0,24.208" style="fill:rgb(37,47,62);fill-rule:nonzero;"/>
                    </g>
                </g>
                <g transform="matrix(0.952517,0,0,0.952517,48.1794,33.5293)">
                    <path d="M0,1.65C-1.647,1.107 -3.912,0.118 -6.296,-0.28C-6.995,-0.398 -7.701,-0.464 -8.403,-0.455C-10.447,-0.423 -12.351,0.014 -13.929,0.735C-13.799,0.275 -13.584,-0.183 -13.326,-0.638C-13.75,-0.074 -14.069,0.509 -14.234,1.092C-13.016,0.536 -11.547,0.199 -9.974,0.175C-9.431,0.167 -8.883,0.221 -8.347,0.311C-6.508,0.618 -4.76,1.379 -3.489,1.802C-3.112,1.922 -2.776,2.015 -2.494,2.058C-1.715,2.239 -0.815,2.288 0.153,2.198C0.553,2.161 0.973,2.093 1.396,2.007C1.362,1.999 1.323,1.996 1.29,1.987C0.924,1.932 0.486,1.81 0,1.65" style="fill:rgb(198,217,238);fill-rule:nonzero;"/>
                </g>
                <g transform="matrix(0.952517,0,0,0.952517,35.9543,35.0569)">
                    <path d="M0,-1.65C1.646,-1.111 3.911,-0.118 6.293,0.28C6.992,0.395 7.695,0.464 8.401,0.452C10.444,0.423 12.349,-0.017 13.927,-0.734C13.792,-0.275 13.581,0.183 13.32,0.64C13.75,0.076 14.069,-0.511 14.23,-1.094C13.014,-0.539 11.544,-0.201 9.97,-0.177C9.428,-0.168 8.882,-0.221 8.343,-0.311C6.504,-0.617 4.759,-1.381 3.489,-1.801C3.11,-1.923 2.777,-2.017 2.494,-2.06C1.711,-2.239 0.813,-2.29 -0.155,-2.2C-0.559,-2.164 -0.974,-2.093 -1.397,-2.009C-1.361,-2.002 -1.328,-1.997 -1.29,-1.988C-0.924,-1.933 -0.488,-1.812 0,-1.65" style="fill:rgb(198,217,238);fill-rule:nonzero;"/>
                </g>
                <g transform="matrix(0.952517,0,0,0.952517,42.874,40.4045)">
                    <path d="M0,-12.833C-0.542,-11.187 -1.53,-8.921 -1.929,-6.54C-2.047,-5.843 -2.112,-5.134 -2.1,-4.433C-2.071,-2.389 -1.636,-0.483 -0.915,1.094C-1.375,0.964 -1.833,0.75 -2.29,0.49C-1.724,0.916 -1.139,1.234 -0.555,1.398C-1.11,0.182 -1.448,-1.288 -1.472,-2.864C-1.48,-3.407 -1.429,-3.952 -1.339,-4.491C-1.031,-6.328 -0.271,-8.074 0.149,-9.345C0.273,-9.723 0.367,-10.056 0.41,-10.34C0.59,-11.123 0.639,-12.021 0.549,-12.985C0.513,-13.389 0.445,-13.806 0.359,-14.231C0.35,-14.196 0.347,-14.159 0.34,-14.122C0.283,-13.756 0.161,-13.321 0,-12.833" style="fill:rgb(198,217,238);fill-rule:nonzero;"/>
                </g>
                <g transform="matrix(0.952517,0,0,0.952517,41.2564,28.1813)">
                    <path d="M0,12.833C0.545,11.187 1.534,8.922 1.931,6.54C2.048,5.839 2.116,5.135 2.104,4.43C2.076,2.389 1.639,0.483 0.917,-1.094C1.378,-0.964 1.837,-0.75 2.292,-0.488C1.728,-0.916 1.143,-1.233 0.559,-1.398C1.116,-0.182 1.453,1.289 1.477,2.863C1.484,3.407 1.433,3.951 1.342,4.49C1.033,6.327 0.271,8.076 -0.15,9.345C-0.27,9.723 -0.366,10.059 -0.406,10.34C-0.587,11.123 -0.636,12.023 -0.547,12.988C-0.51,13.392 -0.441,13.808 -0.357,14.231C-0.349,14.196 -0.344,14.157 -0.336,14.124C-0.281,13.757 -0.16,13.322 0,12.833" style="fill:rgb(198,217,238);fill-rule:nonzero;"/>
                </g>
                <g>
                    <g transform="matrix(0.952517,0,0,0.952517,54.0182,25.1215)">
                        <path d="M0,-4.131C1.259,-6.938 1.387,-9.923 0.391,-11.708C-0.08,-10.456 -0.882,-9.176 -1.977,-8.047C-2.424,-7.585 -2.937,-7.184 -3.471,-6.822C-4.734,-5.966 -6.137,-5.365 -7.224,-4.847C-7.785,-4.579 -8.27,-4.334 -8.596,-4.091C-9.185,-3.722 -9.768,-3.226 -10.317,-2.612C-10.864,-2.004 -11.377,-1.283 -11.825,-0.459C-12.211,0.243 -12.519,0.968 -12.758,1.691C-13.277,3.277 -13.44,4.848 -13.256,6.177C-13.117,6.685 -12.94,7.161 -12.71,7.577C-12.103,5.952 -11.066,4.295 -9.644,2.83C-9.154,2.327 -8.605,1.874 -8.029,1.462C-6.063,0.06 -3.761,-0.844 -2.215,-1.623C-1.754,-1.857 -1.361,-2.076 -1.064,-2.297C-1.033,-2.317 -1.004,-2.341 -0.975,-2.36C-0.794,-2.629 -0.622,-2.906 -0.458,-3.203C-0.291,-3.507 -0.143,-3.82 0,-4.131" style="fill:rgb(88,143,173);fill-rule:nonzero;"/>
                    </g>
                    <g transform="matrix(0.952517,0,0,0.952517,55.1721,34.7635)">
                        <path d="M0,12.054C2.811,13.308 5.792,13.441 7.58,12.444C6.327,11.972 5.048,11.173 3.917,10.079C3.456,9.628 3.052,9.117 2.693,8.583C1.837,7.318 1.234,5.917 0.717,4.83C0.448,4.27 0.205,3.785 -0.038,3.457C-0.409,2.868 -0.905,2.285 -1.517,1.737C-2.125,1.19 -2.849,0.678 -3.669,0.23C-4.374,-0.157 -5.099,-0.466 -5.821,-0.705C-7.406,-1.224 -8.981,-1.387 -10.308,-1.202C-10.814,-1.064 -11.291,-0.888 -11.706,-0.656C-10.083,-0.051 -8.425,0.988 -6.959,2.409C-6.456,2.901 -6.004,3.446 -5.593,4.023C-4.189,5.991 -3.287,8.291 -2.508,9.841C-2.276,10.299 -2.053,10.692 -1.833,10.99C-1.814,11.019 -1.79,11.051 -1.769,11.08C-1.502,11.26 -1.225,11.432 -0.927,11.596C-0.622,11.762 -0.31,11.911 0,12.054" style="fill:rgb(88,143,173);fill-rule:nonzero;"/>
                    </g>
                    <g transform="matrix(0.952517,0,0,0.952517,42.8833,40.9303)">
                        <path d="M0,11.635C1.098,14.51 3.115,16.709 5.085,17.267C4.527,16.05 4.191,14.579 4.166,13.006C4.159,12.364 4.234,11.716 4.356,11.081C4.648,9.579 5.213,8.163 5.617,7.027C5.82,6.444 5.99,5.93 6.052,5.53C6.206,4.851 6.266,4.087 6.224,3.266C6.178,2.448 6.03,1.574 5.765,0.677C5.541,-0.094 5.247,-0.825 4.905,-1.505C4.15,-2.995 3.154,-4.219 2.087,-5.028C1.628,-5.289 1.17,-5.5 0.709,-5.632C1.429,-4.055 1.867,-2.15 1.898,-0.109C1.908,0.597 1.843,1.303 1.724,2.001C1.325,4.383 0.336,6.65 -0.207,8.295C-0.368,8.784 -0.49,9.217 -0.543,9.583C-0.553,9.619 -0.559,9.657 -0.564,9.693C-0.499,10.01 -0.429,10.326 -0.333,10.652C-0.235,10.99 -0.123,11.315 0,11.635" style="fill:rgb(88,143,173);fill-rule:nonzero;"/>
                    </g>
                    <g transform="matrix(0.952517,0,0,0.952517,41.2475,27.654)">
                        <path d="M0,-11.631C-1.095,-14.507 -3.11,-16.71 -5.08,-17.265C-4.526,-16.049 -4.188,-14.579 -4.165,-13.004C-4.154,-12.361 -4.229,-11.715 -4.352,-11.081C-4.644,-9.579 -5.21,-8.16 -5.613,-7.024C-5.821,-6.441 -5.986,-5.926 -6.048,-5.526C-6.204,-4.847 -6.263,-4.084 -6.218,-3.263C-6.175,-2.444 -6.026,-1.574 -5.764,-0.675C-5.538,0.097 -5.243,0.827 -4.9,1.508C-4.149,2.997 -3.151,4.222 -2.079,5.031C-1.624,5.291 -1.165,5.504 -0.705,5.634C-1.425,4.057 -1.863,2.151 -1.891,0.11C-1.906,-0.594 -1.839,-1.301 -1.721,-1.998C-1.322,-4.381 -0.333,-6.645 0.211,-8.292C0.372,-8.782 0.493,-9.214 0.547,-9.583C0.557,-9.618 0.559,-9.656 0.568,-9.69C0.5,-10.006 0.43,-10.325 0.336,-10.652C0.239,-10.987 0.123,-11.312 0,-11.631" style="fill:rgb(88,143,173);fill-rule:nonzero;"/>
                    </g>
                    <g transform="matrix(0.952517,0,0,0.952517,30.1169,43.4637)">
                        <path d="M0,4.134C-1.256,6.941 -1.39,9.923 -0.391,11.71C0.077,10.458 0.879,9.178 1.974,8.049C2.425,7.589 2.935,7.183 3.472,6.824C4.734,5.967 6.136,5.366 7.223,4.849C7.783,4.58 8.267,4.337 8.594,4.093C9.186,3.722 9.765,3.227 10.316,2.614C10.863,2.006 11.374,1.282 11.824,0.462C12.209,-0.243 12.518,-0.966 12.755,-1.692C13.278,-3.276 13.44,-4.85 13.254,-6.178C13.116,-6.685 12.941,-7.159 12.709,-7.576C12.102,-5.952 11.064,-4.295 9.643,-2.83C9.152,-2.325 8.605,-1.873 8.029,-1.46C6.061,-0.057 3.763,0.843 2.21,1.625C1.754,1.858 1.36,2.076 1.063,2.298C1.035,2.316 1.001,2.341 0.972,2.361C0.794,2.63 0.621,2.906 0.458,3.204C0.289,3.509 0.137,3.822 0,4.134" style="fill:rgb(88,143,173);fill-rule:nonzero;"/>
                    </g>
                    <g transform="matrix(0.952517,0,0,0.952517,28.9588,33.8217)">
                        <path d="M0,-12.052C-2.807,-13.309 -5.791,-13.44 -7.575,-12.441C-6.324,-11.972 -5.044,-11.172 -3.914,-10.075C-3.453,-9.629 -3.049,-9.116 -2.69,-8.584C-1.836,-7.317 -1.231,-5.916 -0.714,-4.828C-0.447,-4.268 -0.202,-3.784 0.041,-3.457C0.411,-2.869 0.908,-2.284 1.519,-1.735C2.128,-1.189 2.849,-0.677 3.674,-0.227C4.377,0.159 5.101,0.467 5.825,0.703C7.411,1.226 8.982,1.388 10.315,1.202C10.819,1.064 11.293,0.891 11.709,0.66C10.087,0.052 8.427,-0.987 6.963,-2.408C6.459,-2.9 6.006,-3.447 5.596,-4.021C4.191,-5.989 3.289,-8.29 2.51,-9.84C2.277,-10.297 2.058,-10.69 1.836,-10.989C1.818,-11.018 1.796,-11.048 1.773,-11.079C1.505,-11.258 1.229,-11.431 0.932,-11.593C0.625,-11.761 0.314,-11.912 0,-12.052" style="fill:rgb(88,143,173);fill-rule:nonzero;"/>
                    </g>
                    <g transform="matrix(0.952517,0,0,0.952517,59.7862,28.0485)">
                        <path d="M0,5.696C2.872,4.601 5.079,2.585 5.631,0.615C4.415,1.169 2.947,1.508 1.37,1.531C0.726,1.542 0.084,1.464 -0.553,1.343C-2.053,1.052 -3.471,0.486 -4.608,0.082C-5.193,-0.124 -5.706,-0.291 -6.107,-0.352C-6.786,-0.507 -7.547,-0.567 -8.37,-0.524C-9.185,-0.479 -10.061,-0.33 -10.96,-0.068C-11.732,0.156 -12.459,0.453 -13.14,0.796C-14.629,1.549 -15.857,2.546 -16.665,3.618C-16.925,4.073 -17.138,4.53 -17.266,4.989C-15.688,4.271 -13.784,3.833 -11.746,3.8C-11.041,3.792 -10.333,3.858 -9.634,3.977C-7.25,4.373 -4.986,5.362 -3.34,5.906C-2.853,6.066 -2.416,6.189 -2.049,6.243C-2.014,6.252 -1.977,6.255 -1.94,6.263C-1.627,6.197 -1.308,6.125 -0.983,6.032C-0.646,5.934 -0.322,5.821 0,5.696" style="fill:rgb(88,143,173);fill-rule:nonzero;"/>
                    </g>
                    <g transform="matrix(0.952517,0,0,0.952517,24.3487,40.5406)">
                        <path d="M0,-5.701C-2.876,-4.601 -5.079,-2.587 -5.634,-0.618C-4.417,-1.172 -2.949,-1.511 -1.372,-1.534C-0.73,-1.543 -0.083,-1.469 0.55,-1.346C2.052,-1.054 3.47,-0.49 4.607,-0.085C5.189,0.12 5.703,0.288 6.104,0.347C6.784,0.505 7.547,0.565 8.37,0.521C9.187,0.475 10.059,0.329 10.957,0.065C11.728,-0.16 12.458,-0.454 13.138,-0.8C14.627,-1.55 15.853,-2.547 16.662,-3.619C16.922,-4.073 17.134,-4.534 17.265,-4.993C15.688,-4.275 13.781,-3.836 11.741,-3.806C11.037,-3.794 10.33,-3.86 9.633,-3.978C7.25,-4.376 4.987,-5.365 3.339,-5.909C2.849,-6.07 2.417,-6.191 2.048,-6.248C2.015,-6.255 1.978,-6.259 1.941,-6.266C1.625,-6.198 1.307,-6.13 0.979,-6.035C0.646,-5.936 0.319,-5.824 0,-5.701" style="fill:rgb(88,143,173);fill-rule:nonzero;"/>
                    </g>
                </g>
                <g transform="matrix(-0.870245,0.387251,0.387251,0.870245,43.3321,38.454)">
                    <path d="M0.746,-2.028C0.865,-1.19 0.893,-0.293 0.787,0.636C0.777,0.713 0.759,0.792 0.746,0.867C0.255,-0.351 0.02,-1.543 0.123,-2.6C0.316,-2.403 0.534,-2.217 0.746,-2.028" style="fill:white;fill-rule:nonzero;"/>
                </g>
                <g transform="matrix(-0.888765,-0.342614,-0.342614,0.888765,39.3544,38.3261)">
                    <path d="M0.223,-2.426C0.343,-1.604 0.379,-0.73 0.284,0.172C0.27,0.306 0.243,0.439 0.223,0.573C-0.309,-0.696 -0.555,-1.943 -0.451,-3.041C-0.245,-2.831 -0.009,-2.626 0.223,-2.426" style="fill:white;fill-rule:nonzero;"/>
                </g>
                <g transform="matrix(-0.350988,0.885492,0.885492,0.350988,45.5792,35.4224)">
                    <path d="M1.533,-1.354C1.653,-0.486 1.682,0.439 1.569,1.396C1.561,1.47 1.543,1.543 1.533,1.615C1.035,0.367 0.808,-0.851 0.92,-1.927C1.106,-1.728 1.324,-1.544 1.533,-1.354" style="fill:white;fill-rule:nonzero;"/>
                </g>
                <g transform="matrix(0.376224,0.875068,0.875068,-0.376224,44.8467,33.2622)">
                    <path d="M1.162,-0.549C1.288,0.301 1.322,1.202 1.221,2.131C1.21,2.268 1.182,2.399 1.162,2.527C0.622,1.226 0.382,-0.047 0.501,-1.168C0.702,-0.953 0.937,-0.752 1.162,-0.549" style="fill:white;fill-rule:nonzero;"/>
                </g>
                <g transform="matrix(-0.376485,-0.874956,-0.874956,0.376485,37.4708,34.0363)">
                    <path d="M-0.832,-1.764C-0.707,-0.914 -0.673,-0.012 -0.77,0.916C-0.784,1.05 -0.812,1.18 -0.832,1.313C-1.372,0.009 -1.61,-1.263 -1.495,-2.385C-1.291,-2.168 -1.058,-1.969 -0.832,-1.764" style="fill:white;fill-rule:nonzero;"/>
                </g>
                <g transform="matrix(0.870177,-0.387403,-0.387403,-0.870177,42.5493,31.3047)">
                    <path d="M-0.432,-0.159C-0.312,0.681 -0.285,1.579 -0.391,2.506C-0.402,2.584 -0.42,2.66 -0.432,2.738C-0.92,1.52 -1.153,0.329 -1.054,-0.728C-0.866,-0.531 -0.644,-0.347 -0.432,-0.159" style="fill:white;fill-rule:nonzero;"/>
                </g>
                <g transform="matrix(0.888708,0.342765,0.342765,-0.888708,43.7302,32.3737)">
                    <path d="M0.45,0.042C0.573,0.862 0.606,1.735 0.513,2.639C0.497,2.771 0.472,2.905 0.45,3.037C-0.08,1.769 -0.326,0.524 -0.224,-0.577C-0.018,-0.364 0.217,-0.163 0.45,0.042" style="fill:white;fill-rule:nonzero;"/>
                </g>
                <g transform="matrix(0.35033,-0.885753,-0.885753,-0.35033,39.6897,31.0969)">
                    <path d="M-0.923,-1.045C-0.803,-0.176 -0.776,0.749 -0.886,1.707C-0.894,1.78 -0.911,1.856 -0.923,1.93C-1.422,0.683 -1.648,-0.539 -1.537,-1.617C-1.349,-1.418 -1.134,-1.235 -0.923,-1.045" style="fill:white;fill-rule:nonzero;"/>
                </g>
                <g transform="matrix(0.24,0,0,0.24,-9.21663,26.0381)">
                    <text x="357.274px" y="147.692px" style="font-family:'HelveticaNeue', 'Helvetica Neue';font-size:133.333px;fill:rgb(37,47,62);">e<tspan x="435.537px 521.266px 599.528px 635.791px 684.453px 762.716px 840.978px " y="147.692px 147.692px 147.692px 147.692px 147.692px 147.692px 147.692px ">deltech</tspan></text>
                </g>
                <g>
                    <g transform="matrix(0.638055,-0.70723,-0.70723,-0.638055,47.8669,29.5932)">
                        <path d="M-1.417,-0.629C-2.471,-0.629 -3.325,0.225 -3.323,1.277C-3.324,2.33 -2.468,3.185 -1.417,3.185C-0.362,3.186 0.494,2.333 0.49,1.276C0.488,0.223 -0.367,-0.629 -1.417,-0.629" style="fill:rgb(255,187,53);fill-rule:nonzero;stroke:rgb(229,240,247);stroke-width:0.47px;"/>
                    </g>
                    <g transform="matrix(-0.0474171,-0.951336,-0.951336,0.0474171,41.5181,26.469)">
                        <path d="M-1.909,-2.003C-2.956,-2.001 -3.813,-1.148 -3.813,-0.096C-3.816,0.958 -2.964,1.811 -1.909,1.814C-0.854,1.813 -0.002,0.959 0,-0.093C0.001,-1.148 -0.852,-2 -1.909,-2.003" style="fill:rgb(255,187,53);fill-rule:nonzero;stroke:rgb(229,240,247);stroke-width:0.47px;"/>
                    </g>
                    <g transform="matrix(-0.707702,-0.637531,-0.637531,0.707702,35.7413,30.4896)">
                        <path d="M-1.28,-3.331C-2.336,-3.328 -3.19,-2.472 -3.189,-1.42C-3.186,-0.368 -2.334,0.487 -1.28,0.484C-0.224,0.483 0.633,-0.369 0.628,-1.423C0.626,-2.478 -0.23,-3.331 -1.28,-3.331" style="fill:rgb(255,187,53);fill-rule:nonzero;stroke:rgb(229,240,247);stroke-width:0.47px;"/>
                    </g>
                    <g transform="matrix(-0.95126,0.0489234,0.0489234,0.95126,36.2334,36.4659)">
                        <path d="M0.093,-3.81C-0.96,-3.81 -1.817,-2.955 -1.814,-1.902C-1.811,-0.848 -0.959,0.004 0.093,0.006C1.147,0.002 2.001,-0.85 2.002,-1.905C2.002,-2.956 1.149,-3.81 0.093,-3.81" style="fill:rgb(255,187,53);fill-rule:nonzero;stroke:rgb(229,240,247);stroke-width:0.47px;"/>
                    </g>
                    <g transform="matrix(-0.638042,0.707242,0.707242,0.638042,39.8801,38.6251)">
                        <path d="M1.412,-3.19C0.863,-3.189 0.368,-2.956 0.02,-2.584C-0.299,-2.243 -0.495,-1.786 -0.496,-1.284C-0.494,-0.223 0.361,0.625 1.412,0.623C2.468,0.628 3.322,-0.227 3.319,-1.282C3.318,-2.335 2.464,-3.191 1.412,-3.19" style="fill:rgb(255,187,53);fill-rule:nonzero;stroke:rgb(229,240,247);stroke-width:0.47px;"/>
                    </g>
                    <g transform="matrix(0.048949,0.951259,0.951259,-0.048949,42.2473,38.5024)">
                        <ellipse cx="1.903" cy="0.098" rx="1.91" ry="1.908" style="fill:rgb(255,187,53);stroke:rgb(229,240,247);stroke-width:0.47px;stroke-linejoin:miter;stroke-miterlimit:4;"/>
                    </g>
                    <g transform="matrix(0.706982,0.63833,0.63833,-0.706982,44.7698,38.4693)">
                        <ellipse cx="1.279" cy="1.415" rx="1.907" ry="1.908" style="fill:rgb(255,187,53);stroke:rgb(229,240,247);stroke-width:0.47px;stroke-linejoin:miter;stroke-miterlimit:4;"/>
                    </g>
                    <g transform="matrix(0.95131,-0.04794,-0.04794,-0.95131,48.2631,35.7331)">
                        <ellipse cx="-0.095" cy="1.905" rx="1.909" ry="1.907" style="fill:rgb(255,187,53);stroke:rgb(229,240,247);stroke-width:0.47px;stroke-linejoin:miter;stroke-miterlimit:4;"/>
                    </g>
                    <g transform="matrix(-0.339905,-0.889805,-0.889805,0.339905,39.4362,31.3553)">
                        <path d="M-3.869,-5.618C-6.152,-5.616 -8.006,-3.765 -8.004,-1.482C-8.006,0.804 -6.153,2.661 -3.869,2.66C-1.581,2.661 0.272,0.805 0.27,-1.477C0.267,-3.762 -1.585,-5.616 -3.869,-5.618" style="fill:rgb(255,187,53);fill-rule:nonzero;stroke:rgb(229,240,247);stroke-width:0.47px;"/>
                    </g>
                </g>
            </g>
        </g>
    </g>
</svg>
