<svg xmlns="http://www.w3.org/2000/svg" width="33.97" height="33.907" viewBox="0 0 33.97 33.907">
  <defs>
    <style>
      .cls-1 {
        fill: #101a56;
        fill-rule: evenodd;
      }
    </style>
  </defs>
  <path class="cls-1" d="M3133.97,564.935h-8.49V556.45l17.8-17.8a2,2,0,0,1,2.83,0l5.66,5.657a2,2,0,0,1,0,2.829Zm19.21-33.357,5.66,5.657a2,2,0,0,1,0,2.829l-1.42,1.414a1.99,1.99,0,0,1-2.82,0l-5.66-5.658a2,2,0,0,1,0-2.827l1.41-1.415A2,2,0,0,1,3153.18,531.578Z" transform="translate(-3125.47 -531.031)"/>
</svg>
