<?xml version="1.0" encoding="UTF-8" standalone="no"?>
<!DOCTYPE svg PUBLIC "-//W3C//DTD SVG 1.1//EN" "http://www.w3.org/Graphics/SVG/1.1/DTD/svg11.dtd">
<svg width="100%" height="100%" viewBox="0 0 697 474" version="1.1" xmlns="http://www.w3.org/2000/svg" xmlns:xlink="http://www.w3.org/1999/xlink" xml:space="preserve" xmlns:serif="http://www.serif.com/" style="fill-rule:evenodd;clip-rule:evenodd;stroke-linejoin:round;stroke-miterlimit:2;">
    <g transform="matrix(2,0,0,2,0,0)">
        <g id="Artboard1" transform="matrix(1,0,0,0.978863,-0.0871351,-46.3826)">
            <rect x="0.087" y="47.384" width="348.254" height="242.009" style="fill:none;"/>
            <g transform="matrix(1,0,0,1.02159,-76.9129,-113.251)">
                <path d="M243.128,245.165L264.164,232.997L284.9,245.165L264.164,257.139L243.128,245.451L243.128,245.165Z" style="fill:rgb(246,189,58);fill-rule:nonzero;"/>
                <path d="M180,209.098L264.164,161.295L326.789,196.895L305.971,232.996L264.164,209.098L201.051,244.923L180,209.098Z" style="fill:rgb(246,189,58);fill-rule:nonzero;"/>
                <path d="M243.128,292.969L243.128,269.139L263.877,257.139L284.9,245.165L284.9,269.139L264.164,281.049L264.164,304.894L243.128,317.111L243.128,292.969ZM243.128,245.165L222.1,233.251L201.051,244.922L201.051,221.044L264.164,185.192L264.164,232.995L243.128,245.165ZM305.684,221.045L305.684,209.098L326.789,196.895L327,220.794L305.971,232.996L305.684,221.045Z" style="fill:rgb(235,140,35);fill-rule:nonzero;"/>
                <path d="M222.1,304.453L222.1,233.251L242.841,221.584L243.128,245.165L264.164,256.923L264.164,281.049L243.128,269.852L243.128,317.111L222.1,304.453ZM190.374,238.707L180,232.496L180,209.099L201.051,221.046L201.051,244.924L190.374,238.707ZM264.164,209.098L264.164,185.193L305.684,209.098L305.971,232.996L264.164,209.098Z" style="fill:rgb(227,90,43);fill-rule:nonzero;"/>
                <path d="M106.607,342.277L106.607,387.849L98.589,387.849L98.589,342.277L83,342.277L83,334.408L122.197,334.408L122.197,342.277L106.607,342.277Z" style="fill:rgb(239,102,57);fill-rule:nonzero;"/>
                <path d="M148.737,358.865C149.437,361.277 149.457,364.558 149.386,364.881L123.498,372.602C123.719,374.525 123.635,373.747 124.26,375.088C124.887,376.49 125.629,377.682 126.557,378.537C127.475,379.39 128.508,380.057 129.618,380.532C130.728,380.965 131.938,381.183 133.12,381.178C134.792,381.178 136.36,380.917 137.729,380.308C139.167,379.742 140.504,378.995 141.817,377.998L146.501,382.957C144.727,384.653 142.732,385.947 140.518,386.87C138.37,387.849 135.745,388.238 132.649,388.238C130.333,388.238 128.086,387.848 125.98,386.87C123.873,385.947 122.01,384.582 120.456,382.875C118.849,381.033 117.613,378.888 116.714,376.3C115.767,373.714 115.321,370.758 115.321,367.434C115.321,363.967 115.73,360.943 116.615,358.353C117.5,355.765 118.682,353.636 120.199,351.84C121.749,350.093 123.604,348.745 125.739,347.857C127.902,346.918 130.318,346.455 132.906,346.455C135.745,346.455 138.21,347.008 140.339,348.068C142.474,349.15 144.229,350.592 145.598,352.437C147.035,354.283 148.051,356.359 148.737,358.865ZM141.22,360.623C141.143,359.307 140.176,357.647 139.372,356.575C138.695,355.623 137.645,354.799 136.542,354.384C135.361,353.927 133.774,353.722 132.352,353.796C129.723,353.899 126.811,354.776 125.335,356.829C123.859,358.883 123.44,362.256 123.497,365.92L141.22,360.623ZM177.828,387.458L177.828,364.74C177.828,360.621 177.087,357.797 175.631,356.171C174.19,354.545 172.165,353.728 169.554,353.728C166.915,353.728 164.897,354.647 163.474,356.36C162.018,358.202 161.338,360.68 161.338,363.933L161.338,387.458L153.463,387.458L153.463,347.305L161.338,347.305L161.338,351.145C162.322,349.667 163.77,348.522 165.58,347.709C167.39,346.896 169.33,346.455 171.401,346.455C176.103,346.455 179.656,347.969 182.059,350.996C184.474,353.978 185.697,358.462 185.697,364.443L185.697,387.458L177.828,387.458ZM218.024,376.893C218.024,379.112 217.614,380.965 216.785,382.525C215.936,383.971 214.821,385.225 213.444,386.164C212.042,387.053 210.47,387.717 208.66,388.157C206.85,388.507 204.978,388.751 202.988,388.751C200.224,388.751 197.468,388.202 194.769,387.241C192.021,386.28 189.654,385.094 187.588,383.591L191.197,377.685C193.089,378.998 195.03,379.976 197.06,380.632C199.072,381.288 201.03,381.622 202.881,381.622C207.772,381.622 210.229,380.145 210.229,377.189C210.229,375.706 209.413,374.403 207.771,373.497C206.111,372.608 203.833,371.575 200.887,370.466C198.746,369.653 196.944,368.82 195.464,367.974C193.958,367.185 192.704,366.195 191.779,365.224C190.853,364.264 190.171,363.247 189.731,361.992C189.358,360.841 189.138,359.423 189.138,357.868C189.138,356.029 189.471,354.473 190.135,353.139C190.781,351.761 191.745,350.568 192.978,349.703C194.164,348.746 195.632,348.07 197.304,347.601C199.002,347.156 200.847,346.919 202.842,346.919C205.357,346.919 207.814,347.34 210.212,348.152C212.543,348.965 214.663,350.038 216.438,351.35L213.002,357.356C211.376,356.241 209.714,355.37 208.017,354.775C206.319,354.248 204.509,353.979 202.586,353.979C200.664,353.979 199.242,354.313 198.41,355.014C197.525,355.697 197.106,356.574 197.106,357.665C197.106,358.127 197.193,358.65 197.413,358.998C197.602,359.475 197.97,359.963 198.558,360.346C199.079,360.859 199.87,361.278 200.794,361.801C201.719,362.256 202.99,362.852 204.492,363.445C206.759,364.263 208.717,365.162 210.398,365.874C212.044,366.716 213.5,367.568 214.646,368.565C215.791,369.563 216.633,370.788 217.179,372.1C217.764,373.412 218.024,375.041 218.024,376.893ZM254.636,367.621C254.636,370.945 254.192,373.919 253.235,376.541C252.345,379.165 251.084,381.348 249.443,383.225C247.802,384.968 245.882,386.37 243.697,387.293C241.522,388.219 239.103,388.75 236.5,388.75C233.985,388.75 231.623,388.186 229.48,387.193C227.338,386.214 225.489,384.869 223.901,382.956C222.347,381.177 221.076,378.996 220.222,376.38C219.302,373.864 218.875,371.053 218.875,367.84C218.875,364.561 219.32,361.639 220.239,359.052C221.166,356.465 222.406,354.3 224.009,352.49C225.65,350.679 227.503,349.279 229.682,348.353C231.86,347.412 234.181,346.917 236.755,346.917C239.271,346.917 241.669,347.411 243.864,348.397C245.997,349.379 247.962,350.828 249.556,352.584C251.145,354.38 252.395,356.554 253.288,359.105C254.196,361.657 254.636,364.559 254.636,367.621ZM246.659,367.84C246.659,363.741 245.788,360.472 243.978,358.001C242.167,355.666 239.639,354.405 236.459,354.405C233.432,354.405 231.067,355.666 229.385,358.001C227.652,360.472 226.802,363.634 226.802,367.621C226.802,372.1 227.741,375.4 229.586,377.727C231.396,380.053 233.837,381.283 236.806,381.283C238.286,381.283 239.639,380.917 240.893,380.18C242.079,379.443 243.148,378.499 244.025,377.348C244.85,376.066 245.514,374.724 245.994,373.089C246.47,371.443 246.659,369.724 246.659,367.84ZM280.028,356.062C279.133,355.693 278.257,355.317 277.333,355.041C276.418,354.763 275.287,354.652 273.958,354.652C271.447,354.652 269.525,355.505 268.145,357.274C266.789,358.978 266.089,361.595 266.089,364.927L266.089,387.85L258.219,387.85L258.219,347.747L266.089,347.747L266.089,351.588C266.992,350.258 268.284,349.167 269.874,348.246C271.464,347.392 273.256,346.918 275.25,346.918C276.875,346.918 278.224,347.084 279.293,347.356C280.343,347.617 281.27,348.068 282.023,348.595L280.028,356.062Z" style="fill:rgb(239,102,57);fill-rule:nonzero;"/>
                <path d="M293.171,342.277L293.171,356.276L308.58,356.276L308.58,364.145L293.171,364.145L293.171,387.849L285.222,387.849L285.222,334.407L319.69,334.407L319.69,342.277L293.171,342.277ZM320.989,387.85L320.989,336.295L328.859,332.158L328.859,387.849L320.989,387.849L320.989,387.85ZM368.983,367.621C368.983,370.945 368.605,373.919 367.642,376.541C366.694,379.165 365.435,381.348 363.81,383.225C362.183,384.968 360.296,386.37 358.135,387.293C355.867,388.219 353.541,388.75 350.916,388.75C348.331,388.75 345.985,388.186 343.895,387.193C341.729,386.214 339.87,384.869 338.316,382.956C336.761,381.177 335.486,378.996 334.569,376.38C333.716,373.864 333.223,371.053 333.223,367.84C333.223,364.561 333.734,361.639 334.623,359.052C335.512,356.465 336.798,354.3 338.447,352.49C340.067,350.679 341.916,349.279 344.028,348.353C346.273,347.412 348.61,346.917 351.17,346.917C353.686,346.917 356.084,347.411 358.229,348.397C360.423,349.379 362.392,350.828 363.969,352.584C365.559,354.38 366.782,356.554 367.642,359.105C368.623,361.657 368.983,364.559 368.983,367.621ZM361.08,367.84C361.08,363.741 360.136,360.472 358.392,358.001C356.515,355.666 354.055,354.405 350.875,354.405C347.847,354.405 345.466,355.666 343.733,358.001C342.048,360.472 341.198,363.634 341.198,367.621C341.198,372.1 342.089,375.4 344.002,377.727C345.781,380.053 348.252,381.283 351.236,381.283C352.688,381.283 354.054,380.917 355.241,380.18C356.486,379.443 357.495,378.499 358.446,377.348C359.264,376.066 359.928,374.724 360.424,373.089C360.817,371.443 361.08,369.724 361.08,367.84ZM407.843,387.85L401.112,387.85L395.689,367.621C395.237,366.094 394.886,364.557 394.549,362.912C394.153,361.289 393.875,360.013 393.588,359.052C393.329,360.35 393.051,361.644 392.753,362.933C392.364,364.559 391.941,366.184 391.605,367.73L386.232,387.85L379.456,387.85L368.499,347.747L376.262,347.747L381.057,367.218C381.425,368.819 381.789,370.465 382.135,372.1C382.503,373.746 382.764,375.059 383.052,376.038L384.048,372.1C384.387,370.465 384.794,368.819 385.235,367.218L390.613,347.747L396.877,347.747L402.374,367.325C402.763,368.891 403.104,370.467 403.506,372.099C403.909,373.745 404.225,375.058 404.449,376.037C404.731,375.058 405.051,373.729 405.387,372.068C405.706,370.464 406.043,368.818 406.444,367.217L411.241,347.746L419,347.746L407.843,387.85Z" style="fill:rgb(166,167,169);fill-rule:nonzero;"/>
            </g>
        </g>
    </g>
</svg>
